<svg width="17" height="17" viewBox="0 0 17 17" fill="none" xmlns="http://www.w3.org/2000/svg">
<path fill-rule="evenodd" clip-rule="evenodd" d="M8.5 14.875C9.33718 14.875 10.1662 14.7101 10.9396 14.3897C11.7131 14.0694 12.4158 13.5998 13.0078 13.0078C13.5998 12.4158 14.0694 11.7131 14.3897 10.9396C14.7101 10.1662 14.875 9.33718 14.875 8.5C14.875 7.66282 14.7101 6.83384 14.3897 6.06039C14.0694 5.28694 13.5998 4.58417 13.0078 3.99219C12.4158 3.40022 11.7131 2.93064 10.9396 2.61027C10.1662 2.28989 9.33718 2.125 8.5 2.125C6.80924 2.125 5.18774 2.79665 3.99219 3.99219C2.79665 5.18774 2.125 6.80924 2.125 8.5C2.125 10.1908 2.79665 11.8123 3.99219 13.0078C5.18774 14.2033 6.80924 14.875 8.5 14.875ZM8.33567 11.0783L11.8773 6.82833L10.7893 5.92167L7.7435 9.57596L6.16746 7.99921L5.16587 9.00079L7.29087 11.1258L7.83913 11.674L8.33567 11.0783Z" fill="#00DA3C"/>
</svg>
